# xmcd
#
# Track frame offsets:
#	150
#	27081
#	46761
#	63507
#	81247
#	101212
#	123610
#	144773
#	161480
#	179719
#	201356
#	219861
#
# Disc length: 3209 seconds
# Revision: 1
# Processed by: cddbd v1.5.2PL0 Copyright (c) Steve Scherf et al.
# Submitted via: dBpowerAMP V12.0
#
DISCID=a80c870c
DTITLE=Buscemi - Retro Nuevo
DYEAR=2006
DGENRE=Electronic
TTITLE0=Lost
TTITLE1=Jazz Jumper
TTITLE2=Não Falo Portugues (feat. Fay Lovsky)
TTITLE3=Brasileiras
TTITLE4=Sahib Balkan
TTITLE5=Collapsing In An Elegant Way
TTITLE6=Bollywood Swing King (Dark Deejayz Mix)
TTITLE7=Medusa (feat. Dag Taeldeman)
TTITLE8=Jumilla (feat. Alexia Waku)
TTITLE9=Isolada Do Mundo (feat. Viviani Godoy)
TTITLE10=Nothing to Worry About (feat. Isabelle Antena)
TTITLE11=Retro Nuevo
EXTD=
EXTT0=
EXTT1=
EXTT2=
EXTT3=
EXTT4=
EXTT5=
EXTT6=
EXTT7=
EXTT8=
EXTT9=
EXTT10=
EXTT11=
PLAYORDER=
